<svg xmlns="http://www.w3.org/2000/svg" xmlns:xlink="http://www.w3.org/1999/xlink" id="terminal" baseProfile="full" viewBox="0 0 896 393" width="896" version="1.1">
    <defs>
        <termtosvg:template_settings xmlns:termtosvg="https://github.com/nbedos/termtosvg">

      <termtosvg:animation type="css"/>
            <termtosvg:screen_geometry columns="112" rows="23"/>

      <termtosvg:animation type="css"/>
        </termtosvg:template_settings>
        <style type="text/css" id="generated-style"><![CDATA[#screen {
                font-family: 'DejaVu Sans Mono', monospace;
                font-style: normal;
                font-size: 14px;
            }

        text {
            dominant-baseline: text-before-edge;
            white-space: pre;
        }
    
            :root {
                --animation-duration: 6130ms;
            }

            @keyframes roll {
                0.000%{transform:translateY(0px)}
16.346%{transform:translateY(-408px)}
18.173%{transform:translateY(-816px)}
20.261%{transform:translateY(-1224px)}
23.132%{transform:translateY(-1632px)}
25.873%{transform:translateY(-2040px)}
27.961%{transform:translateY(-2448px)}
31.223%{transform:translateY(-2856px)}
33.051%{transform:translateY(-3264px)}
35.922%{transform:translateY(-3672px)}
36.330%{transform:translateY(-4080px)}
36.378%{transform:translateY(-4488px)}
36.411%{transform:translateY(-4896px)}
36.460%{transform:translateY(-5304px)}
36.493%{transform:translateY(-5712px)}
37.276%{transform:translateY(-6120px)}
37.308%{transform:translateY(-6528px)}
37.374%{transform:translateY(-6936px)}
37.504%{transform:translateY(-7344px)}
37.618%{transform:translateY(-7752px)}
37.700%{transform:translateY(-8160px)}
37.781%{transform:translateY(-8568px)}
38.287%{transform:translateY(-8976px)}
38.646%{transform:translateY(-9384px)}
38.679%{transform:translateY(-9792px)}
38.711%{transform:translateY(-10200px)}
38.728%{transform:translateY(-10608px)}
38.760%{transform:translateY(-11016px)}
38.825%{transform:translateY(-11424px)}
74.290%{transform:translateY(-11832px)}
76.639%{transform:translateY(-12240px)}
78.858%{transform:translateY(-12648px)}
81.860%{transform:translateY(-13056px)}
83.687%{transform:translateY(-13464px)}
100.000%{transform:translateY(-13464px)}
            }

            #screen_view {
                animation-duration: 6130ms;
                animation-iteration-count:infinite;
                animation-name:roll;
                animation-timing-function: steps(1,end);
                animation-fill-mode: forwards;
            }
        ]]></style>
        <style type="text/css" id="user-style">
            .foreground {fill: #dcdcdc;}
            .background {fill: #2c2c2c;}
            .color0 {fill: #3f3f3f;}
            .color1 {fill: #705050;}
            .color2 {fill: #60b48a;}
            .color3 {fill: #dfaf8f;}
            .color4 {fill: #9ab8d7;}
            .color5 {fill: #dc8cc3;}
            .color6 {fill: #8cd0d3;}
            .color7 {fill: #dcdcdc;}
            .color8 {fill: #709080;}
            .color9 {fill: #dca3a3;}
            .color10 {fill: #72d5a3;}
            .color11 {fill: #f0dfaf;}
            .color12 {fill: #94bff3;}
            .color13 {fill: #ec93d3;}
            .color14 {fill: #93e0e3;}
            .color15 {fill: #ffffff;}
            font-family: JetBrains, monospace;
        </style>
    </defs>
    <svg id="screen" width="896" viewBox="0 0 896 391" preserveAspectRatio="xMidYMin meet">
    <rect class="background" height="100%" width="100%" x="0" y="0"/><defs><g id="g1"><text x="0" textLength="24" class="foreground">┌─[</text><text x="24" textLength="8" class="color2">✔</text><text x="32" textLength="32" class="foreground">]──[</text><text x="64" textLength="8" font-weight="bold" class="color12">~</text><text x="72" textLength="8" class="foreground">]</text></g><g id="g2"><text x="0" textLength="48" class="foreground">└───▶ </text><text x="48" textLength="8" class="background"> </text></g><g id="g3"><text x="0" textLength="56" class="foreground">└───▶ n</text><text x="56" textLength="8" class="background"> </text></g><g id="g4"><text x="0" textLength="64" class="foreground">└───▶ ne</text><text x="64" textLength="8" class="background"> </text></g><g id="g5"><text x="0" textLength="72" class="foreground">└───▶ neo</text><text x="72" textLength="8" class="background"> </text></g><g id="g6"><text x="0" textLength="80" class="foreground">└───▶ neof</text><text x="80" textLength="8" class="background"> </text></g><g id="g7"><text x="0" textLength="88" class="foreground">└───▶ neofe</text><text x="88" textLength="8" class="background"> </text></g><g id="g8"><text x="0" textLength="96" class="foreground">└───▶ neofet</text><text x="96" textLength="8" class="background"> </text></g><g id="g9"><text x="0" textLength="104" class="foreground">└───▶ neofetc</text><text x="104" textLength="8" class="background"> </text></g><g id="g10"><text x="0" textLength="112" class="foreground">└───▶ neofetch</text><text x="112" textLength="8" class="background"> </text></g><g id="g11"><text x="0" textLength="112" class="foreground">└───▶ neofetch</text></g><g id="g12"><text x="0" textLength="8" class="background"> </text></g><g id="g13"><text x="0" textLength="168" font-weight="bold" class="color14">                   -`</text></g><g id="g14"><text x="0" textLength="176" font-weight="bold" class="color14">                  .o+`</text></g><g id="g15"><text x="0" textLength="176" font-weight="bold" class="color14">                 `ooo/</text></g><g id="g16"><text x="0" textLength="184" font-weight="bold" class="color14">                `+oooo:</text></g><g id="g17"><text x="0" textLength="192" font-weight="bold" class="color14">               `+oooooo:</text></g><g id="g18"><text x="0" textLength="200" font-weight="bold" class="color14">               -+oooooo+:</text></g><g id="g19"><text x="0" textLength="208" font-weight="bold" class="color14">             `/:-:++oooo+:</text></g><g id="g20"><text x="0" textLength="216" font-weight="bold" class="color14">            `/++++/+++++++:</text></g><g id="g21"><text x="0" textLength="224" font-weight="bold" class="color14">           `/++++++++++++++:</text></g><g id="g22"><text x="0" textLength="240" font-weight="bold" class="color14">          `/+++ooooooooooooo/`</text></g><g id="g23"><text x="0" textLength="248" font-weight="bold" class="color14">         ./ooosssso++osssssso+`</text></g><g id="g24"><text x="0" textLength="256" font-weight="bold" class="color14">        .oossssso-````/ossssss+`</text></g><g id="g25"><text x="0" textLength="264" font-weight="bold" class="color14">       -osssssso.      :ssssssso.</text></g><g id="g26"><text x="0" textLength="272" font-weight="bold" class="color14">      :osssssss/        osssso+++.</text></g><g id="g27"><text x="0" textLength="272" font-weight="bold" class="color14">     /ossssssss/        +ssssooo/-</text></g><g id="g28"><text x="0" textLength="288" font-weight="bold" class="color14">   `/ossssso+/:-        -:/+osssso+-</text></g><g id="g29"><text x="0" textLength="296" font-weight="bold" class="color14">  `+sso+:-`                 `.-/+oso:</text></g><g id="g30"><text x="0" textLength="304" font-weight="bold" class="color14"> `++:.                           `-/+/</text></g><g id="g31"><text x="0" textLength="304" font-weight="bold" class="color14"> .`                                 `/</text></g><g id="g32"><text x="0" textLength="168" font-weight="bold" class="color14">                   -`</text><text x="328" textLength="32" font-weight="bold" class="color14">user</text><text x="360" textLength="8" class="foreground">@</text><text x="368" textLength="24" font-weight="bold" class="color14">QPC</text><text x="392" textLength="8" class="foreground"> </text></g><g id="g33"><text x="0" textLength="176" font-weight="bold" class="color14">                  .o+`</text><text x="328" textLength="72" class="foreground">-------- </text></g><g id="g34"><text x="0" textLength="176" font-weight="bold" class="color14">                 `ooo/</text><text x="328" textLength="16" font-weight="bold" class="color14">OS</text><text x="344" textLength="160" class="foreground">: Arch Linux x86_64 </text></g><g id="g35"><text x="0" textLength="184" font-weight="bold" class="color14">                `+oooo:</text><text x="328" textLength="48" font-weight="bold" class="color14">Kernel</text><text x="376" textLength="160" class="foreground">: 5.13.7-zen1-1-zen </text></g><g id="g36"><text x="0" textLength="192" font-weight="bold" class="color14">               `+oooooo:</text><text x="328" textLength="48" font-weight="bold" class="color14">Uptime</text><text x="376" textLength="152" class="foreground">: 4 hours, 43 mins </text></g><g id="g37"><text x="0" textLength="200" font-weight="bold" class="color14">               -+oooooo+:</text><text x="328" textLength="64" font-weight="bold" class="color14">Packages</text><text x="392" textLength="240" class="foreground">: 2963 (pacman), 10 (flatpak) </text></g><g id="g38"><text x="0" textLength="208" font-weight="bold" class="color14">             `/:-:++oooo+:</text><text x="328" textLength="40" font-weight="bold" class="color14">Shell</text><text x="368" textLength="104" class="foreground">: bash 5.1.8 </text></g><g id="g39"><text x="0" textLength="216" font-weight="bold" class="color14">            `/++++/+++++++:</text><text x="328" textLength="80" font-weight="bold" class="color14">Resolution</text><text x="408" textLength="96" class="foreground">: 3440x1440 </text></g><g id="g40"><text x="0" textLength="224" font-weight="bold" class="color14">           `/++++++++++++++:</text><text x="328" textLength="16" font-weight="bold" class="color14">WM</text><text x="344" textLength="64" class="foreground">: bspwm </text></g><g id="g41"><text x="0" textLength="240" font-weight="bold" class="color14">          `/+++ooooooooooooo/`</text><text x="328" textLength="40" font-weight="bold" class="color14">Theme</text><text x="368" textLength="184" class="foreground">: Mojave-dark [GTK2/3] </text></g><g id="g42"><text x="0" textLength="248" font-weight="bold" class="color14">         ./ooosssso++osssssso+`</text><text x="328" textLength="40" font-weight="bold" class="color14">Icons</text><text x="368" textLength="152" class="foreground">: Adwaita [GTK2/3] </text></g><g id="g43"><text x="0" textLength="256" font-weight="bold" class="color14">        .oossssso-````/ossssss+`</text><text x="328" textLength="64" font-weight="bold" class="color14">Terminal</text><text x="392" textLength="64" class="foreground">: kitty </text></g><g id="g44"><text x="0" textLength="264" font-weight="bold" class="color14">       -osssssso.      :ssssssso.</text><text x="328" textLength="24" font-weight="bold" class="color14">CPU</text><text x="352" textLength="288" class="foreground">: AMD Ryzen 9 3950X (32) @ 3.500GHz </text></g><g id="g45"><text x="0" textLength="272" font-weight="bold" class="color14">      :osssssss/        osssso+++.</text><text x="328" textLength="24" font-weight="bold" class="color14">GPU</text><text x="352" textLength="200" class="foreground">: NVIDIA GeForce GTX 980 </text></g><g id="g46"><text x="0" textLength="272" font-weight="bold" class="color14">     /ossssssss/        +ssssooo/-</text><text x="328" textLength="24" font-weight="bold" class="color14">GPU</text><text x="352" textLength="208" class="foreground">: NVIDIA GeForce RTX 2070 </text></g><g id="g47"><text x="0" textLength="288" font-weight="bold" class="color14">   `/ossssso+/:-        -:/+osssso+-</text><text x="328" textLength="48" font-weight="bold" class="color14">Memory</text><text x="376" textLength="176" class="foreground">: 34529MiB / 64234MiB </text></g><g id="g48"><text x="0" textLength="304" font-weight="bold" class="color14"> `++:.                           `-/+/</text><text x="328" textLength="24" class="color0">   </text><text x="352" textLength="24" class="color1">   </text><text x="376" textLength="24" class="color2">   </text><text x="400" textLength="24" class="color3">   </text><text x="424" textLength="24" class="color4">   </text><text x="448" textLength="24" class="color5">   </text><text x="472" textLength="24" class="color6">   </text><text x="496" textLength="24" class="color7">   </text></g><g id="g49"><text x="0" textLength="56" class="foreground">└───▶ c</text><text x="56" textLength="8" class="background"> </text></g><g id="g50"><text x="0" textLength="64" class="foreground">└───▶ cl</text><text x="64" textLength="8" class="background"> </text></g><g id="g51"><text x="0" textLength="72" class="foreground">└───▶ cle</text><text x="72" textLength="8" class="background"> </text></g><g id="g52"><text x="0" textLength="80" class="foreground">└───▶ clea</text><text x="80" textLength="8" class="background"> </text></g><g id="g53"><text x="0" textLength="88" class="foreground">└───▶ clear</text><text x="88" textLength="8" class="background"> </text></g></defs><g id="screen_view"><g><use xlink:href="#g1" y="0"/><rect x="48" y="17" width="8" height="17" class="foreground"/><use xlink:href="#g2" y="17"/></g><g><use xlink:href="#g1" y="408"/><rect x="56" y="425" width="8" height="17" class="foreground"/><use xlink:href="#g3" y="425"/></g><g><use xlink:href="#g1" y="816"/><rect x="64" y="833" width="8" height="17" class="foreground"/><use xlink:href="#g4" y="833"/></g><g><use xlink:href="#g1" y="1224"/><rect x="72" y="1241" width="8" height="17" class="foreground"/><use xlink:href="#g5" y="1241"/></g><g><use xlink:href="#g1" y="1632"/><rect x="80" y="1649" width="8" height="17" class="foreground"/><use xlink:href="#g6" y="1649"/></g><g><use xlink:href="#g1" y="2040"/><rect x="88" y="2057" width="8" height="17" class="foreground"/><use xlink:href="#g7" y="2057"/></g><g><use xlink:href="#g1" y="2448"/><rect x="96" y="2465" width="8" height="17" class="foreground"/><use xlink:href="#g8" y="2465"/></g><g><use xlink:href="#g1" y="2856"/><rect x="104" y="2873" width="8" height="17" class="foreground"/><use xlink:href="#g9" y="2873"/></g><g><use xlink:href="#g1" y="3264"/><rect x="112" y="3281" width="8" height="17" class="foreground"/><use xlink:href="#g10" y="3281"/></g><g><use xlink:href="#g1" y="3672"/><use xlink:href="#g11" y="3689"/><rect x="0" y="3706" width="8" height="17" class="foreground"/><use xlink:href="#g12" y="3706"/></g><g><use xlink:href="#g1" y="4080"/><use xlink:href="#g11" y="4097"/><use xlink:href="#g13" y="4114"/><use xlink:href="#g14" y="4131"/><use xlink:href="#g15" y="4148"/><use xlink:href="#g16" y="4165"/><use xlink:href="#g17" y="4182"/><use xlink:href="#g18" y="4199"/><use xlink:href="#g19" y="4216"/><use xlink:href="#g20" y="4233"/><use xlink:href="#g21" y="4250"/><use xlink:href="#g22" y="4267"/><use xlink:href="#g23" y="4284"/><use xlink:href="#g24" y="4301"/><use xlink:href="#g25" y="4318"/><use xlink:href="#g26" y="4335"/><use xlink:href="#g27" y="4352"/><use xlink:href="#g28" y="4369"/><use xlink:href="#g29" y="4386"/><use xlink:href="#g30" y="4403"/><use xlink:href="#g31" y="4420"/></g><g><use xlink:href="#g1" y="4488"/><use xlink:href="#g11" y="4505"/><use xlink:href="#g32" y="4522"/><use xlink:href="#g33" y="4539"/><use xlink:href="#g15" y="4556"/><use xlink:href="#g16" y="4573"/><use xlink:href="#g17" y="4590"/><use xlink:href="#g18" y="4607"/><use xlink:href="#g19" y="4624"/><use xlink:href="#g20" y="4641"/><use xlink:href="#g21" y="4658"/><use xlink:href="#g22" y="4675"/><use xlink:href="#g23" y="4692"/><use xlink:href="#g24" y="4709"/><use xlink:href="#g25" y="4726"/><use xlink:href="#g26" y="4743"/><use xlink:href="#g27" y="4760"/><use xlink:href="#g28" y="4777"/><use xlink:href="#g29" y="4794"/><use xlink:href="#g30" y="4811"/><use xlink:href="#g31" y="4828"/></g><g><use xlink:href="#g1" y="4896"/><use xlink:href="#g11" y="4913"/><use xlink:href="#g32" y="4930"/><use xlink:href="#g33" y="4947"/><use xlink:href="#g34" y="4964"/><use xlink:href="#g16" y="4981"/><use xlink:href="#g17" y="4998"/><use xlink:href="#g18" y="5015"/><use xlink:href="#g19" y="5032"/><use xlink:href="#g20" y="5049"/><use xlink:href="#g21" y="5066"/><use xlink:href="#g22" y="5083"/><use xlink:href="#g23" y="5100"/><use xlink:href="#g24" y="5117"/><use xlink:href="#g25" y="5134"/><use xlink:href="#g26" y="5151"/><use xlink:href="#g27" y="5168"/><use xlink:href="#g28" y="5185"/><use xlink:href="#g29" y="5202"/><use xlink:href="#g30" y="5219"/><use xlink:href="#g31" y="5236"/></g><g><use xlink:href="#g1" y="5304"/><use xlink:href="#g11" y="5321"/><use xlink:href="#g32" y="5338"/><use xlink:href="#g33" y="5355"/><use xlink:href="#g34" y="5372"/><use xlink:href="#g35" y="5389"/><use xlink:href="#g17" y="5406"/><use xlink:href="#g18" y="5423"/><use xlink:href="#g19" y="5440"/><use xlink:href="#g20" y="5457"/><use xlink:href="#g21" y="5474"/><use xlink:href="#g22" y="5491"/><use xlink:href="#g23" y="5508"/><use xlink:href="#g24" y="5525"/><use xlink:href="#g25" y="5542"/><use xlink:href="#g26" y="5559"/><use xlink:href="#g27" y="5576"/><use xlink:href="#g28" y="5593"/><use xlink:href="#g29" y="5610"/><use xlink:href="#g30" y="5627"/><use xlink:href="#g31" y="5644"/></g><g><use xlink:href="#g1" y="5712"/><use xlink:href="#g11" y="5729"/><use xlink:href="#g32" y="5746"/><use xlink:href="#g33" y="5763"/><use xlink:href="#g34" y="5780"/><use xlink:href="#g35" y="5797"/><use xlink:href="#g36" y="5814"/><use xlink:href="#g18" y="5831"/><use xlink:href="#g19" y="5848"/><use xlink:href="#g20" y="5865"/><use xlink:href="#g21" y="5882"/><use xlink:href="#g22" y="5899"/><use xlink:href="#g23" y="5916"/><use xlink:href="#g24" y="5933"/><use xlink:href="#g25" y="5950"/><use xlink:href="#g26" y="5967"/><use xlink:href="#g27" y="5984"/><use xlink:href="#g28" y="6001"/><use xlink:href="#g29" y="6018"/><use xlink:href="#g30" y="6035"/><use xlink:href="#g31" y="6052"/></g><g><use xlink:href="#g1" y="6120"/><use xlink:href="#g11" y="6137"/><use xlink:href="#g32" y="6154"/><use xlink:href="#g33" y="6171"/><use xlink:href="#g34" y="6188"/><use xlink:href="#g35" y="6205"/><use xlink:href="#g36" y="6222"/><use xlink:href="#g37" y="6239"/><use xlink:href="#g19" y="6256"/><use xlink:href="#g20" y="6273"/><use xlink:href="#g21" y="6290"/><use xlink:href="#g22" y="6307"/><use xlink:href="#g23" y="6324"/><use xlink:href="#g24" y="6341"/><use xlink:href="#g25" y="6358"/><use xlink:href="#g26" y="6375"/><use xlink:href="#g27" y="6392"/><use xlink:href="#g28" y="6409"/><use xlink:href="#g29" y="6426"/><use xlink:href="#g30" y="6443"/><use xlink:href="#g31" y="6460"/></g><g><use xlink:href="#g1" y="6528"/><use xlink:href="#g11" y="6545"/><use xlink:href="#g32" y="6562"/><use xlink:href="#g33" y="6579"/><use xlink:href="#g34" y="6596"/><use xlink:href="#g35" y="6613"/><use xlink:href="#g36" y="6630"/><use xlink:href="#g37" y="6647"/><use xlink:href="#g38" y="6664"/><use xlink:href="#g20" y="6681"/><use xlink:href="#g21" y="6698"/><use xlink:href="#g22" y="6715"/><use xlink:href="#g23" y="6732"/><use xlink:href="#g24" y="6749"/><use xlink:href="#g25" y="6766"/><use xlink:href="#g26" y="6783"/><use xlink:href="#g27" y="6800"/><use xlink:href="#g28" y="6817"/><use xlink:href="#g29" y="6834"/><use xlink:href="#g30" y="6851"/><use xlink:href="#g31" y="6868"/></g><g><use xlink:href="#g1" y="6936"/><use xlink:href="#g11" y="6953"/><use xlink:href="#g32" y="6970"/><use xlink:href="#g33" y="6987"/><use xlink:href="#g34" y="7004"/><use xlink:href="#g35" y="7021"/><use xlink:href="#g36" y="7038"/><use xlink:href="#g37" y="7055"/><use xlink:href="#g38" y="7072"/><use xlink:href="#g39" y="7089"/><use xlink:href="#g21" y="7106"/><use xlink:href="#g22" y="7123"/><use xlink:href="#g23" y="7140"/><use xlink:href="#g24" y="7157"/><use xlink:href="#g25" y="7174"/><use xlink:href="#g26" y="7191"/><use xlink:href="#g27" y="7208"/><use xlink:href="#g28" y="7225"/><use xlink:href="#g29" y="7242"/><use xlink:href="#g30" y="7259"/><use xlink:href="#g31" y="7276"/></g><g><use xlink:href="#g1" y="7344"/><use xlink:href="#g11" y="7361"/><use xlink:href="#g32" y="7378"/><use xlink:href="#g33" y="7395"/><use xlink:href="#g34" y="7412"/><use xlink:href="#g35" y="7429"/><use xlink:href="#g36" y="7446"/><use xlink:href="#g37" y="7463"/><use xlink:href="#g38" y="7480"/><use xlink:href="#g39" y="7497"/><use xlink:href="#g40" y="7514"/><use xlink:href="#g22" y="7531"/><use xlink:href="#g23" y="7548"/><use xlink:href="#g24" y="7565"/><use xlink:href="#g25" y="7582"/><use xlink:href="#g26" y="7599"/><use xlink:href="#g27" y="7616"/><use xlink:href="#g28" y="7633"/><use xlink:href="#g29" y="7650"/><use xlink:href="#g30" y="7667"/><use xlink:href="#g31" y="7684"/></g><g><use xlink:href="#g1" y="7752"/><use xlink:href="#g11" y="7769"/><use xlink:href="#g32" y="7786"/><use xlink:href="#g33" y="7803"/><use xlink:href="#g34" y="7820"/><use xlink:href="#g35" y="7837"/><use xlink:href="#g36" y="7854"/><use xlink:href="#g37" y="7871"/><use xlink:href="#g38" y="7888"/><use xlink:href="#g39" y="7905"/><use xlink:href="#g40" y="7922"/><use xlink:href="#g41" y="7939"/><use xlink:href="#g23" y="7956"/><use xlink:href="#g24" y="7973"/><use xlink:href="#g25" y="7990"/><use xlink:href="#g26" y="8007"/><use xlink:href="#g27" y="8024"/><use xlink:href="#g28" y="8041"/><use xlink:href="#g29" y="8058"/><use xlink:href="#g30" y="8075"/><use xlink:href="#g31" y="8092"/></g><g><use xlink:href="#g1" y="8160"/><use xlink:href="#g11" y="8177"/><use xlink:href="#g32" y="8194"/><use xlink:href="#g33" y="8211"/><use xlink:href="#g34" y="8228"/><use xlink:href="#g35" y="8245"/><use xlink:href="#g36" y="8262"/><use xlink:href="#g37" y="8279"/><use xlink:href="#g38" y="8296"/><use xlink:href="#g39" y="8313"/><use xlink:href="#g40" y="8330"/><use xlink:href="#g41" y="8347"/><use xlink:href="#g42" y="8364"/><use xlink:href="#g24" y="8381"/><use xlink:href="#g25" y="8398"/><use xlink:href="#g26" y="8415"/><use xlink:href="#g27" y="8432"/><use xlink:href="#g28" y="8449"/><use xlink:href="#g29" y="8466"/><use xlink:href="#g30" y="8483"/><use xlink:href="#g31" y="8500"/></g><g><use xlink:href="#g1" y="8568"/><use xlink:href="#g11" y="8585"/><use xlink:href="#g32" y="8602"/><use xlink:href="#g33" y="8619"/><use xlink:href="#g34" y="8636"/><use xlink:href="#g35" y="8653"/><use xlink:href="#g36" y="8670"/><use xlink:href="#g37" y="8687"/><use xlink:href="#g38" y="8704"/><use xlink:href="#g39" y="8721"/><use xlink:href="#g40" y="8738"/><use xlink:href="#g41" y="8755"/><use xlink:href="#g42" y="8772"/><use xlink:href="#g43" y="8789"/><use xlink:href="#g25" y="8806"/><use xlink:href="#g26" y="8823"/><use xlink:href="#g27" y="8840"/><use xlink:href="#g28" y="8857"/><use xlink:href="#g29" y="8874"/><use xlink:href="#g30" y="8891"/><use xlink:href="#g31" y="8908"/></g><g><use xlink:href="#g1" y="8976"/><use xlink:href="#g11" y="8993"/><use xlink:href="#g32" y="9010"/><use xlink:href="#g33" y="9027"/><use xlink:href="#g34" y="9044"/><use xlink:href="#g35" y="9061"/><use xlink:href="#g36" y="9078"/><use xlink:href="#g37" y="9095"/><use xlink:href="#g38" y="9112"/><use xlink:href="#g39" y="9129"/><use xlink:href="#g40" y="9146"/><use xlink:href="#g41" y="9163"/><use xlink:href="#g42" y="9180"/><use xlink:href="#g43" y="9197"/><use xlink:href="#g44" y="9214"/><use xlink:href="#g26" y="9231"/><use xlink:href="#g27" y="9248"/><use xlink:href="#g28" y="9265"/><use xlink:href="#g29" y="9282"/><use xlink:href="#g30" y="9299"/><use xlink:href="#g31" y="9316"/></g><g><use xlink:href="#g1" y="9384"/><use xlink:href="#g11" y="9401"/><use xlink:href="#g32" y="9418"/><use xlink:href="#g33" y="9435"/><use xlink:href="#g34" y="9452"/><use xlink:href="#g35" y="9469"/><use xlink:href="#g36" y="9486"/><use xlink:href="#g37" y="9503"/><use xlink:href="#g38" y="9520"/><use xlink:href="#g39" y="9537"/><use xlink:href="#g40" y="9554"/><use xlink:href="#g41" y="9571"/><use xlink:href="#g42" y="9588"/><use xlink:href="#g43" y="9605"/><use xlink:href="#g44" y="9622"/><use xlink:href="#g45" y="9639"/><use xlink:href="#g27" y="9656"/><use xlink:href="#g28" y="9673"/><use xlink:href="#g29" y="9690"/><use xlink:href="#g30" y="9707"/><use xlink:href="#g31" y="9724"/></g><g><use xlink:href="#g1" y="9792"/><use xlink:href="#g11" y="9809"/><use xlink:href="#g32" y="9826"/><use xlink:href="#g33" y="9843"/><use xlink:href="#g34" y="9860"/><use xlink:href="#g35" y="9877"/><use xlink:href="#g36" y="9894"/><use xlink:href="#g37" y="9911"/><use xlink:href="#g38" y="9928"/><use xlink:href="#g39" y="9945"/><use xlink:href="#g40" y="9962"/><use xlink:href="#g41" y="9979"/><use xlink:href="#g42" y="9996"/><use xlink:href="#g43" y="10013"/><use xlink:href="#g44" y="10030"/><use xlink:href="#g45" y="10047"/><use xlink:href="#g46" y="10064"/><use xlink:href="#g28" y="10081"/><use xlink:href="#g29" y="10098"/><use xlink:href="#g30" y="10115"/><use xlink:href="#g31" y="10132"/></g><g><use xlink:href="#g1" y="10200"/><use xlink:href="#g11" y="10217"/><use xlink:href="#g32" y="10234"/><use xlink:href="#g33" y="10251"/><use xlink:href="#g34" y="10268"/><use xlink:href="#g35" y="10285"/><use xlink:href="#g36" y="10302"/><use xlink:href="#g37" y="10319"/><use xlink:href="#g38" y="10336"/><use xlink:href="#g39" y="10353"/><use xlink:href="#g40" y="10370"/><use xlink:href="#g41" y="10387"/><use xlink:href="#g42" y="10404"/><use xlink:href="#g43" y="10421"/><use xlink:href="#g44" y="10438"/><use xlink:href="#g45" y="10455"/><use xlink:href="#g46" y="10472"/><use xlink:href="#g47" y="10489"/><use xlink:href="#g29" y="10506"/><use xlink:href="#g30" y="10523"/><use xlink:href="#g31" y="10540"/></g><g><use xlink:href="#g1" y="10608"/><use xlink:href="#g11" y="10625"/><use xlink:href="#g32" y="10642"/><use xlink:href="#g33" y="10659"/><use xlink:href="#g34" y="10676"/><use xlink:href="#g35" y="10693"/><use xlink:href="#g36" y="10710"/><use xlink:href="#g37" y="10727"/><use xlink:href="#g38" y="10744"/><use xlink:href="#g39" y="10761"/><use xlink:href="#g40" y="10778"/><use xlink:href="#g41" y="10795"/><use xlink:href="#g42" y="10812"/><use xlink:href="#g43" y="10829"/><use xlink:href="#g44" y="10846"/><use xlink:href="#g45" y="10863"/><use xlink:href="#g46" y="10880"/><use xlink:href="#g47" y="10897"/><use xlink:href="#g29" y="10914"/><rect x="328" y="10931" width="24" height="17" class="color0"/><rect x="352" y="10931" width="24" height="17" class="color1"/><rect x="376" y="10931" width="24" height="17" class="color2"/><rect x="400" y="10931" width="24" height="17" class="color3"/><rect x="424" y="10931" width="24" height="17" class="color4"/><rect x="448" y="10931" width="24" height="17" class="color5"/><rect x="472" y="10931" width="24" height="17" class="color6"/><rect x="496" y="10931" width="24" height="17" class="color7"/><use xlink:href="#g48" y="10931"/><use xlink:href="#g31" y="10948"/></g><g><use xlink:href="#g1" y="11016"/><use xlink:href="#g11" y="11033"/><use xlink:href="#g32" y="11050"/><use xlink:href="#g33" y="11067"/><use xlink:href="#g34" y="11084"/><use xlink:href="#g35" y="11101"/><use xlink:href="#g36" y="11118"/><use xlink:href="#g37" y="11135"/><use xlink:href="#g38" y="11152"/><use xlink:href="#g39" y="11169"/><use xlink:href="#g40" y="11186"/><use xlink:href="#g41" y="11203"/><use xlink:href="#g42" y="11220"/><use xlink:href="#g43" y="11237"/><use xlink:href="#g44" y="11254"/><use xlink:href="#g45" y="11271"/><use xlink:href="#g46" y="11288"/><use xlink:href="#g47" y="11305"/><use xlink:href="#g29" y="11322"/><rect x="328" y="11339" width="24" height="17" class="color0"/><rect x="352" y="11339" width="24" height="17" class="color1"/><rect x="376" y="11339" width="24" height="17" class="color2"/><rect x="400" y="11339" width="24" height="17" class="color3"/><rect x="424" y="11339" width="24" height="17" class="color4"/><rect x="448" y="11339" width="24" height="17" class="color5"/><rect x="472" y="11339" width="24" height="17" class="color6"/><rect x="496" y="11339" width="24" height="17" class="color7"/><use xlink:href="#g48" y="11339"/><use xlink:href="#g31" y="11356"/><rect x="0" y="11390" width="8" height="17" class="foreground"/><use xlink:href="#g12" y="11390"/></g><g><use xlink:href="#g11" y="11424"/><use xlink:href="#g32" y="11441"/><use xlink:href="#g33" y="11458"/><use xlink:href="#g34" y="11475"/><use xlink:href="#g35" y="11492"/><use xlink:href="#g36" y="11509"/><use xlink:href="#g37" y="11526"/><use xlink:href="#g38" y="11543"/><use xlink:href="#g39" y="11560"/><use xlink:href="#g40" y="11577"/><use xlink:href="#g41" y="11594"/><use xlink:href="#g42" y="11611"/><use xlink:href="#g43" y="11628"/><use xlink:href="#g44" y="11645"/><use xlink:href="#g45" y="11662"/><use xlink:href="#g46" y="11679"/><use xlink:href="#g47" y="11696"/><use xlink:href="#g29" y="11713"/><rect x="328" y="11730" width="24" height="17" class="color0"/><rect x="352" y="11730" width="24" height="17" class="color1"/><rect x="376" y="11730" width="24" height="17" class="color2"/><rect x="400" y="11730" width="24" height="17" class="color3"/><rect x="424" y="11730" width="24" height="17" class="color4"/><rect x="448" y="11730" width="24" height="17" class="color5"/><rect x="472" y="11730" width="24" height="17" class="color6"/><rect x="496" y="11730" width="24" height="17" class="color7"/><use xlink:href="#g48" y="11730"/><use xlink:href="#g31" y="11747"/><use xlink:href="#g1" y="11781"/><rect x="48" y="11798" width="8" height="17" class="foreground"/><use xlink:href="#g2" y="11798"/></g><g><use xlink:href="#g11" y="11832"/><use xlink:href="#g32" y="11849"/><use xlink:href="#g33" y="11866"/><use xlink:href="#g34" y="11883"/><use xlink:href="#g35" y="11900"/><use xlink:href="#g36" y="11917"/><use xlink:href="#g37" y="11934"/><use xlink:href="#g38" y="11951"/><use xlink:href="#g39" y="11968"/><use xlink:href="#g40" y="11985"/><use xlink:href="#g41" y="12002"/><use xlink:href="#g42" y="12019"/><use xlink:href="#g43" y="12036"/><use xlink:href="#g44" y="12053"/><use xlink:href="#g45" y="12070"/><use xlink:href="#g46" y="12087"/><use xlink:href="#g47" y="12104"/><use xlink:href="#g29" y="12121"/><rect x="328" y="12138" width="24" height="17" class="color0"/><rect x="352" y="12138" width="24" height="17" class="color1"/><rect x="376" y="12138" width="24" height="17" class="color2"/><rect x="400" y="12138" width="24" height="17" class="color3"/><rect x="424" y="12138" width="24" height="17" class="color4"/><rect x="448" y="12138" width="24" height="17" class="color5"/><rect x="472" y="12138" width="24" height="17" class="color6"/><rect x="496" y="12138" width="24" height="17" class="color7"/><use xlink:href="#g48" y="12138"/><use xlink:href="#g31" y="12155"/><use xlink:href="#g1" y="12189"/><rect x="56" y="12206" width="8" height="17" class="foreground"/><use xlink:href="#g49" y="12206"/></g><g><use xlink:href="#g11" y="12240"/><use xlink:href="#g32" y="12257"/><use xlink:href="#g33" y="12274"/><use xlink:href="#g34" y="12291"/><use xlink:href="#g35" y="12308"/><use xlink:href="#g36" y="12325"/><use xlink:href="#g37" y="12342"/><use xlink:href="#g38" y="12359"/><use xlink:href="#g39" y="12376"/><use xlink:href="#g40" y="12393"/><use xlink:href="#g41" y="12410"/><use xlink:href="#g42" y="12427"/><use xlink:href="#g43" y="12444"/><use xlink:href="#g44" y="12461"/><use xlink:href="#g45" y="12478"/><use xlink:href="#g46" y="12495"/><use xlink:href="#g47" y="12512"/><use xlink:href="#g29" y="12529"/><rect x="328" y="12546" width="24" height="17" class="color0"/><rect x="352" y="12546" width="24" height="17" class="color1"/><rect x="376" y="12546" width="24" height="17" class="color2"/><rect x="400" y="12546" width="24" height="17" class="color3"/><rect x="424" y="12546" width="24" height="17" class="color4"/><rect x="448" y="12546" width="24" height="17" class="color5"/><rect x="472" y="12546" width="24" height="17" class="color6"/><rect x="496" y="12546" width="24" height="17" class="color7"/><use xlink:href="#g48" y="12546"/><use xlink:href="#g31" y="12563"/><use xlink:href="#g1" y="12597"/><rect x="64" y="12614" width="8" height="17" class="foreground"/><use xlink:href="#g50" y="12614"/></g><g><use xlink:href="#g11" y="12648"/><use xlink:href="#g32" y="12665"/><use xlink:href="#g33" y="12682"/><use xlink:href="#g34" y="12699"/><use xlink:href="#g35" y="12716"/><use xlink:href="#g36" y="12733"/><use xlink:href="#g37" y="12750"/><use xlink:href="#g38" y="12767"/><use xlink:href="#g39" y="12784"/><use xlink:href="#g40" y="12801"/><use xlink:href="#g41" y="12818"/><use xlink:href="#g42" y="12835"/><use xlink:href="#g43" y="12852"/><use xlink:href="#g44" y="12869"/><use xlink:href="#g45" y="12886"/><use xlink:href="#g46" y="12903"/><use xlink:href="#g47" y="12920"/><use xlink:href="#g29" y="12937"/><rect x="328" y="12954" width="24" height="17" class="color0"/><rect x="352" y="12954" width="24" height="17" class="color1"/><rect x="376" y="12954" width="24" height="17" class="color2"/><rect x="400" y="12954" width="24" height="17" class="color3"/><rect x="424" y="12954" width="24" height="17" class="color4"/><rect x="448" y="12954" width="24" height="17" class="color5"/><rect x="472" y="12954" width="24" height="17" class="color6"/><rect x="496" y="12954" width="24" height="17" class="color7"/><use xlink:href="#g48" y="12954"/><use xlink:href="#g31" y="12971"/><use xlink:href="#g1" y="13005"/><rect x="72" y="13022" width="8" height="17" class="foreground"/><use xlink:href="#g51" y="13022"/></g><g><use xlink:href="#g11" y="13056"/><use xlink:href="#g32" y="13073"/><use xlink:href="#g33" y="13090"/><use xlink:href="#g34" y="13107"/><use xlink:href="#g35" y="13124"/><use xlink:href="#g36" y="13141"/><use xlink:href="#g37" y="13158"/><use xlink:href="#g38" y="13175"/><use xlink:href="#g39" y="13192"/><use xlink:href="#g40" y="13209"/><use xlink:href="#g41" y="13226"/><use xlink:href="#g42" y="13243"/><use xlink:href="#g43" y="13260"/><use xlink:href="#g44" y="13277"/><use xlink:href="#g45" y="13294"/><use xlink:href="#g46" y="13311"/><use xlink:href="#g47" y="13328"/><use xlink:href="#g29" y="13345"/><rect x="328" y="13362" width="24" height="17" class="color0"/><rect x="352" y="13362" width="24" height="17" class="color1"/><rect x="376" y="13362" width="24" height="17" class="color2"/><rect x="400" y="13362" width="24" height="17" class="color3"/><rect x="424" y="13362" width="24" height="17" class="color4"/><rect x="448" y="13362" width="24" height="17" class="color5"/><rect x="472" y="13362" width="24" height="17" class="color6"/><rect x="496" y="13362" width="24" height="17" class="color7"/><use xlink:href="#g48" y="13362"/><use xlink:href="#g31" y="13379"/><use xlink:href="#g1" y="13413"/><rect x="80" y="13430" width="8" height="17" class="foreground"/><use xlink:href="#g52" y="13430"/></g><g><use xlink:href="#g11" y="13464"/><use xlink:href="#g32" y="13481"/><use xlink:href="#g33" y="13498"/><use xlink:href="#g34" y="13515"/><use xlink:href="#g35" y="13532"/><use xlink:href="#g36" y="13549"/><use xlink:href="#g37" y="13566"/><use xlink:href="#g38" y="13583"/><use xlink:href="#g39" y="13600"/><use xlink:href="#g40" y="13617"/><use xlink:href="#g41" y="13634"/><use xlink:href="#g42" y="13651"/><use xlink:href="#g43" y="13668"/><use xlink:href="#g44" y="13685"/><use xlink:href="#g45" y="13702"/><use xlink:href="#g46" y="13719"/><use xlink:href="#g47" y="13736"/><use xlink:href="#g29" y="13753"/><rect x="328" y="13770" width="24" height="17" class="color0"/><rect x="352" y="13770" width="24" height="17" class="color1"/><rect x="376" y="13770" width="24" height="17" class="color2"/><rect x="400" y="13770" width="24" height="17" class="color3"/><rect x="424" y="13770" width="24" height="17" class="color4"/><rect x="448" y="13770" width="24" height="17" class="color5"/><rect x="472" y="13770" width="24" height="17" class="color6"/><rect x="496" y="13770" width="24" height="17" class="color7"/><use xlink:href="#g48" y="13770"/><use xlink:href="#g31" y="13787"/><use xlink:href="#g1" y="13821"/><rect x="88" y="13838" width="8" height="17" class="foreground"/><use xlink:href="#g53" y="13838"/></g></g></svg>
</svg>