<svg xmlns="http://www.w3.org/2000/svg" xmlns:xlink="http://www.w3.org/1999/xlink" id="terminal" baseProfile="full" viewBox="0 0 952 444" width="952" version="1.1">
    <defs>
        <termtosvg:template_settings xmlns:termtosvg="https://github.com/nbedos/termtosvg">

      <termtosvg:animation type="css"/>
            <termtosvg:screen_geometry columns="119" rows="26"/>

      <termtosvg:animation type="css"/>
        </termtosvg:template_settings>
        <style type="text/css" id="generated-style"><![CDATA[#screen {
                font-family: 'DejaVu Sans Mono', monospace;
                font-style: normal;
                font-size: 14px;
            }

        text {
            dominant-baseline: text-before-edge;
            white-space: pre;
        }
    
            :root {
                --animation-duration: 12166ms;
            }

            @keyframes roll {
                0.000%{transform:translateY(0px)}
23.590%{transform:translateY(-476px)}
24.708%{transform:translateY(-952px)}
25.892%{transform:translateY(-1428px)}
28.719%{transform:translateY(-1904px)}
29.903%{transform:translateY(-2380px)}
30.955%{transform:translateY(-2856px)}
32.985%{transform:translateY(-3332px)}
34.177%{transform:translateY(-3808px)}
37.268%{transform:translateY(-4284px)}
37.621%{transform:translateY(-4760px)}
37.654%{transform:translateY(-5236px)}
37.695%{transform:translateY(-5712px)}
37.728%{transform:translateY(-6188px)}
37.777%{transform:translateY(-6664px)}
37.819%{transform:translateY(-7140px)}
37.999%{transform:translateY(-7616px)}
38.032%{transform:translateY(-8092px)}
38.090%{transform:translateY(-8568px)}
38.427%{transform:translateY(-9044px)}
38.550%{transform:translateY(-9520px)}
38.640%{transform:translateY(-9996px)}
38.756%{transform:translateY(-10472px)}
38.846%{transform:translateY(-10948px)}
38.986%{transform:translateY(-11424px)}
39.125%{transform:translateY(-11900px)}
39.175%{transform:translateY(-12376px)}
39.306%{transform:translateY(-12852px)}
39.331%{transform:translateY(-13328px)}
39.388%{transform:translateY(-13804px)}
85.270%{transform:translateY(-14280px)}
86.980%{transform:translateY(-14756px)}
88.690%{transform:translateY(-15232px)}
90.202%{transform:translateY(-15708px)}
91.780%{transform:translateY(-16184px)}
100.000%{transform:translateY(-16184px)}
            }

            #screen_view {
                animation-duration: 12166ms;
                animation-iteration-count:infinite;
                animation-name:roll;
                animation-timing-function: steps(1,end);
                animation-fill-mode: forwards;
            }
        ]]></style>
        <style type="text/css" id="user-style">
            .foreground {fill: #dcdcdc;}
            .background {fill: #2c2c2c;}
            .color0 {fill: #3f3f3f;}
            .color1 {fill: #705050;}
            .color2 {fill: #60b48a;}
            .color3 {fill: #dfaf8f;}
            .color4 {fill: #9ab8d7;}
            .color5 {fill: #dc8cc3;}
            .color6 {fill: #8cd0d3;}
            .color7 {fill: #dcdcdc;}
            .color8 {fill: #709080;}
            .color9 {fill: #dca3a3;}
            .color10 {fill: #72d5a3;}
            .color11 {fill: #f0dfaf;}
            .color12 {fill: #94bff3;}
            .color13 {fill: #ec93d3;}
            .color14 {fill: #93e0e3;}
            .color15 {fill: #ffffff;}
            font-family: JetBrains, monospace;
        </style>
    </defs>
    <svg id="screen" width="952" viewBox="0 0 952 442" preserveAspectRatio="xMidYMin meet">
    <rect class="background" height="100%" width="100%" x="0" y="0"/><defs><g id="g1"><text x="0" textLength="24" class="foreground">&#9484;&#9472;[</text><text x="24" textLength="8" class="color2">&#10004;</text><text x="32" textLength="32" class="foreground">]&#9472;&#9472;[</text><text x="64" textLength="8" font-weight="bold" class="color12">~</text><text x="72" textLength="8" class="foreground">]</text></g><g id="g2"><text x="0" textLength="48" class="foreground">&#9492;&#9472;&#9472;&#9472;&#9654; </text><text x="48" textLength="8" class="background"> </text></g><g id="g3"><text x="0" textLength="56" class="foreground">&#9492;&#9472;&#9472;&#9472;&#9654; n</text><text x="56" textLength="8" class="background"> </text></g><g id="g4"><text x="0" textLength="64" class="foreground">&#9492;&#9472;&#9472;&#9472;&#9654; ne</text><text x="64" textLength="8" class="background"> </text></g><g id="g5"><text x="0" textLength="72" class="foreground">&#9492;&#9472;&#9472;&#9472;&#9654; neo</text><text x="72" textLength="8" class="background"> </text></g><g id="g6"><text x="0" textLength="80" class="foreground">&#9492;&#9472;&#9472;&#9472;&#9654; neof</text><text x="80" textLength="8" class="background"> </text></g><g id="g7"><text x="0" textLength="88" class="foreground">&#9492;&#9472;&#9472;&#9472;&#9654; neofe</text><text x="88" textLength="8" class="background"> </text></g><g id="g8"><text x="0" textLength="96" class="foreground">&#9492;&#9472;&#9472;&#9472;&#9654; neofet</text><text x="96" textLength="8" class="background"> </text></g><g id="g9"><text x="0" textLength="104" class="foreground">&#9492;&#9472;&#9472;&#9472;&#9654; neofetc</text><text x="104" textLength="8" class="background"> </text></g><g id="g10"><text x="0" textLength="112" class="foreground">&#9492;&#9472;&#9472;&#9472;&#9654; neofetch</text><text x="112" textLength="8" class="background"> </text></g><g id="g11"><text x="0" textLength="112" class="foreground">&#9492;&#9472;&#9472;&#9472;&#9654; neofetch</text></g><g id="g12"><text x="0" textLength="8" class="background"> </text></g><g id="g13"><text x="0" textLength="168" font-weight="bold" class="color14">                   -`</text></g><g id="g14"><text x="0" textLength="176" font-weight="bold" class="color14">                  .o+`</text></g><g id="g15"><text x="0" textLength="176" font-weight="bold" class="color14">                 `ooo/</text></g><g id="g16"><text x="0" textLength="184" font-weight="bold" class="color14">                `+oooo:</text></g><g id="g17"><text x="0" textLength="192" font-weight="bold" class="color14">               `+oooooo:</text></g><g id="g18"><text x="0" textLength="200" font-weight="bold" class="color14">               -+oooooo+:</text></g><g id="g19"><text x="0" textLength="208" font-weight="bold" class="color14">             `/:-:++oooo+:</text></g><g id="g20"><text x="0" textLength="216" font-weight="bold" class="color14">            `/++++/+++++++:</text></g><g id="g21"><text x="0" textLength="224" font-weight="bold" class="color14">           `/++++++++++++++:</text></g><g id="g22"><text x="0" textLength="240" font-weight="bold" class="color14">          `/+++ooooooooooooo/`</text></g><g id="g23"><text x="0" textLength="248" font-weight="bold" class="color14">         ./ooosssso++osssssso+`</text></g><g id="g24"><text x="0" textLength="256" font-weight="bold" class="color14">        .oossssso-````/ossssss+`</text></g><g id="g25"><text x="0" textLength="264" font-weight="bold" class="color14">       -osssssso.      :ssssssso.</text></g><g id="g26"><text x="0" textLength="272" font-weight="bold" class="color14">      :osssssss/        osssso+++.</text></g><g id="g27"><text x="0" textLength="272" font-weight="bold" class="color14">     /ossssssss/        +ssssooo/-</text></g><g id="g28"><text x="0" textLength="288" font-weight="bold" class="color14">   `/ossssso+/:-        -:/+osssso+-</text></g><g id="g29"><text x="0" textLength="296" font-weight="bold" class="color14">  `+sso+:-`                 `.-/+oso:</text></g><g id="g30"><text x="0" textLength="304" font-weight="bold" class="color14"> `++:.                           `-/+/</text></g><g id="g31"><text x="0" textLength="304" font-weight="bold" class="color14"> .`                                 `/</text></g><g id="g32"><text x="0" textLength="168" font-weight="bold" class="color14">                   -`</text><text x="328" textLength="32" font-weight="bold" class="color14">user</text><text x="360" textLength="8" class="foreground">@</text><text x="368" textLength="32" font-weight="bold" class="color14">QPC2</text><text x="400" textLength="8" class="foreground"> </text></g><g id="g33"><text x="0" textLength="176" font-weight="bold" class="color14">                  .o+`</text><text x="328" textLength="80" class="foreground">--------- </text></g><g id="g34"><text x="0" textLength="176" font-weight="bold" class="color14">                 `ooo/</text><text x="328" textLength="16" font-weight="bold" class="color14">OS</text><text x="344" textLength="160" class="foreground">: Arch Linux x86_64 </text></g><g id="g35"><text x="0" textLength="184" font-weight="bold" class="color14">                `+oooo:</text><text x="328" textLength="48" font-weight="bold" class="color14">Kernel</text><text x="376" textLength="96" class="foreground">: 6.8.2-AMD </text></g><g id="g36"><text x="0" textLength="192" font-weight="bold" class="color14">               `+oooooo:</text><text x="328" textLength="48" font-weight="bold" class="color14">Uptime</text><text x="376" textLength="144" class="foreground">: 3 hours, 8 mins </text></g><g id="g37"><text x="0" textLength="200" font-weight="bold" class="color14">               -+oooooo+:</text><text x="328" textLength="64" font-weight="bold" class="color14">Packages</text><text x="392" textLength="128" class="foreground">: 1327 (pacman) </text></g><g id="g38"><text x="0" textLength="208" font-weight="bold" class="color14">             `/:-:++oooo+:</text><text x="328" textLength="40" font-weight="bold" class="color14">Shell</text><text x="368" textLength="112" class="foreground">: bash 5.2.26 </text></g><g id="g39"><text x="0" textLength="216" font-weight="bold" class="color14">            `/++++/+++++++:</text><text x="328" textLength="80" font-weight="bold" class="color14">Resolution</text><text x="408" textLength="96" class="foreground">: 3840x1600 </text></g><g id="g40"><text x="0" textLength="224" font-weight="bold" class="color14">           `/++++++++++++++:</text><text x="328" textLength="16" font-weight="bold" class="color14">WM</text><text x="344" textLength="64" class="foreground">: bspwm </text></g><g id="g41"><text x="0" textLength="240" font-weight="bold" class="color14">          `/+++ooooooooooooo/`</text><text x="328" textLength="40" font-weight="bold" class="color14">Theme</text><text x="368" textLength="304" class="foreground">: Adwaita [GTK2], Adwaita-dark [GTK3] </text></g><g id="g42"><text x="0" textLength="248" font-weight="bold" class="color14">         ./ooosssso++osssssso+`</text><text x="328" textLength="40" font-weight="bold" class="color14">Icons</text><text x="368" textLength="152" class="foreground">: Adwaita [GTK2/3] </text></g><g id="g43"><text x="0" textLength="256" font-weight="bold" class="color14">        .oossssso-````/ossssss+`</text><text x="328" textLength="48" font-weight="bold" class="color14">Cursor</text><text x="376" textLength="136" class="foreground">: Adwaita [GTK3] </text></g><g id="g44"><text x="0" textLength="264" font-weight="bold" class="color14">       -osssssso.      :ssssssso.</text><text x="328" textLength="64" font-weight="bold" class="color14">Terminal</text><text x="392" textLength="64" class="foreground">: kitty </text></g><g id="g45"><text x="0" textLength="272" font-weight="bold" class="color14">      :osssssss/        osssso+++.</text><text x="328" textLength="24" font-weight="bold" class="color14">CPU</text><text x="352" textLength="304" class="foreground">: AMD Ryzen Threadripper 7970X s (64) </text></g><g id="g46"><text x="0" textLength="272" font-weight="bold" class="color14">     /ossssssss/        +ssssooo/-</text><text x="328" textLength="24" font-weight="bold" class="color14">GPU</text><text x="352" textLength="208" class="foreground">: NVIDIA GeForce RTX 4090 </text></g><g id="g47"><text x="0" textLength="288" font-weight="bold" class="color14">   `/ossssso+/:-        -:/+osssso+-</text><text x="328" textLength="48" font-weight="bold" class="color14">Memory</text><text x="376" textLength="200" class="foreground">: 24528 MiB / 257256 MiB </text></g><g id="g48"><text x="0" textLength="296" font-weight="bold" class="color14">  `+sso+:-`                 `.-/+oso:</text><text x="328" textLength="56" font-weight="bold" class="color14">Network</text><text x="384" textLength="72" class="foreground">: 1 Gbps </text></g><g id="g49"><text x="0" textLength="304" font-weight="bold" class="color14"> .`                                 `/</text><text x="328" textLength="24" class="color0">   </text><text x="352" textLength="24" class="color1">   </text><text x="376" textLength="24" class="color2">   </text><text x="400" textLength="24" class="color3">   </text><text x="424" textLength="24" class="color4">   </text><text x="448" textLength="24" class="color5">   </text><text x="472" textLength="24" class="color6">   </text><text x="496" textLength="24" class="color7">   </text></g><g id="g50"><text x="328" textLength="24" class="color8">   </text><text x="352" textLength="24" class="color9">   </text><text x="376" textLength="24" class="color10">   </text><text x="400" textLength="24" class="color11">   </text><text x="424" textLength="24" class="color12">   </text><text x="448" textLength="24" class="color13">   </text><text x="472" textLength="24" class="color14">   </text><text x="496" textLength="24" class="color15">   </text></g><g id="g51"><text x="0" textLength="56" class="foreground">&#9492;&#9472;&#9472;&#9472;&#9654; c</text><text x="56" textLength="8" class="background"> </text></g><g id="g52"><text x="0" textLength="64" class="foreground">&#9492;&#9472;&#9472;&#9472;&#9654; cl</text><text x="64" textLength="8" class="background"> </text></g><g id="g53"><text x="0" textLength="72" class="foreground">&#9492;&#9472;&#9472;&#9472;&#9654; cle</text><text x="72" textLength="8" class="background"> </text></g><g id="g54"><text x="0" textLength="80" class="foreground">&#9492;&#9472;&#9472;&#9472;&#9654; clea</text><text x="80" textLength="8" class="background"> </text></g><g id="g55"><text x="0" textLength="88" class="foreground">&#9492;&#9472;&#9472;&#9472;&#9654; clear</text><text x="88" textLength="8" class="background"> </text></g></defs><g id="screen_view"><g><use xlink:href="#g1" y="0"/><rect x="48" y="17" width="8" height="17" class="foreground"/><use xlink:href="#g2" y="17"/></g><g><use xlink:href="#g1" y="476"/><rect x="56" y="493" width="8" height="17" class="foreground"/><use xlink:href="#g3" y="493"/></g><g><use xlink:href="#g1" y="952"/><rect x="64" y="969" width="8" height="17" class="foreground"/><use xlink:href="#g4" y="969"/></g><g><use xlink:href="#g1" y="1428"/><rect x="72" y="1445" width="8" height="17" class="foreground"/><use xlink:href="#g5" y="1445"/></g><g><use xlink:href="#g1" y="1904"/><rect x="80" y="1921" width="8" height="17" class="foreground"/><use xlink:href="#g6" y="1921"/></g><g><use xlink:href="#g1" y="2380"/><rect x="88" y="2397" width="8" height="17" class="foreground"/><use xlink:href="#g7" y="2397"/></g><g><use xlink:href="#g1" y="2856"/><rect x="96" y="2873" width="8" height="17" class="foreground"/><use xlink:href="#g8" y="2873"/></g><g><use xlink:href="#g1" y="3332"/><rect x="104" y="3349" width="8" height="17" class="foreground"/><use xlink:href="#g9" y="3349"/></g><g><use xlink:href="#g1" y="3808"/><rect x="112" y="3825" width="8" height="17" class="foreground"/><use xlink:href="#g10" y="3825"/></g><g><use xlink:href="#g1" y="4284"/><use xlink:href="#g11" y="4301"/><rect x="0" y="4318" width="8" height="17" class="foreground"/><use xlink:href="#g12" y="4318"/></g><g><use xlink:href="#g1" y="4760"/><use xlink:href="#g11" y="4777"/></g><g><use xlink:href="#g1" y="5236"/><use xlink:href="#g11" y="5253"/><use xlink:href="#g13" y="5270"/><use xlink:href="#g14" y="5287"/><use xlink:href="#g15" y="5304"/><use xlink:href="#g16" y="5321"/><use xlink:href="#g17" y="5338"/><use xlink:href="#g18" y="5355"/><use xlink:href="#g19" y="5372"/><use xlink:href="#g20" y="5389"/><use xlink:href="#g21" y="5406"/><use xlink:href="#g22" y="5423"/><use xlink:href="#g23" y="5440"/><use xlink:href="#g24" y="5457"/><use xlink:href="#g25" y="5474"/><use xlink:href="#g26" y="5491"/><use xlink:href="#g27" y="5508"/><use xlink:href="#g28" y="5525"/><use xlink:href="#g29" y="5542"/><use xlink:href="#g30" y="5559"/><use xlink:href="#g31" y="5576"/></g><g><use xlink:href="#g1" y="5712"/><use xlink:href="#g11" y="5729"/><use xlink:href="#g32" y="5746"/><use xlink:href="#g33" y="5763"/><use xlink:href="#g15" y="5780"/><use xlink:href="#g16" y="5797"/><use xlink:href="#g17" y="5814"/><use xlink:href="#g18" y="5831"/><use xlink:href="#g19" y="5848"/><use xlink:href="#g20" y="5865"/><use xlink:href="#g21" y="5882"/><use xlink:href="#g22" y="5899"/><use xlink:href="#g23" y="5916"/><use xlink:href="#g24" y="5933"/><use xlink:href="#g25" y="5950"/><use xlink:href="#g26" y="5967"/><use xlink:href="#g27" y="5984"/><use xlink:href="#g28" y="6001"/><use xlink:href="#g29" y="6018"/><use xlink:href="#g30" y="6035"/><use xlink:href="#g31" y="6052"/></g><g><use xlink:href="#g1" y="6188"/><use xlink:href="#g11" y="6205"/><use xlink:href="#g32" y="6222"/><use xlink:href="#g33" y="6239"/><use xlink:href="#g34" y="6256"/><use xlink:href="#g16" y="6273"/><use xlink:href="#g17" y="6290"/><use xlink:href="#g18" y="6307"/><use xlink:href="#g19" y="6324"/><use xlink:href="#g20" y="6341"/><use xlink:href="#g21" y="6358"/><use xlink:href="#g22" y="6375"/><use xlink:href="#g23" y="6392"/><use xlink:href="#g24" y="6409"/><use xlink:href="#g25" y="6426"/><use xlink:href="#g26" y="6443"/><use xlink:href="#g27" y="6460"/><use xlink:href="#g28" y="6477"/><use xlink:href="#g29" y="6494"/><use xlink:href="#g30" y="6511"/><use xlink:href="#g31" y="6528"/></g><g><use xlink:href="#g1" y="6664"/><use xlink:href="#g11" y="6681"/><use xlink:href="#g32" y="6698"/><use xlink:href="#g33" y="6715"/><use xlink:href="#g34" y="6732"/><use xlink:href="#g35" y="6749"/><use xlink:href="#g17" y="6766"/><use xlink:href="#g18" y="6783"/><use xlink:href="#g19" y="6800"/><use xlink:href="#g20" y="6817"/><use xlink:href="#g21" y="6834"/><use xlink:href="#g22" y="6851"/><use xlink:href="#g23" y="6868"/><use xlink:href="#g24" y="6885"/><use xlink:href="#g25" y="6902"/><use xlink:href="#g26" y="6919"/><use xlink:href="#g27" y="6936"/><use xlink:href="#g28" y="6953"/><use xlink:href="#g29" y="6970"/><use xlink:href="#g30" y="6987"/><use xlink:href="#g31" y="7004"/></g><g><use xlink:href="#g1" y="7140"/><use xlink:href="#g11" y="7157"/><use xlink:href="#g32" y="7174"/><use xlink:href="#g33" y="7191"/><use xlink:href="#g34" y="7208"/><use xlink:href="#g35" y="7225"/><use xlink:href="#g36" y="7242"/><use xlink:href="#g18" y="7259"/><use xlink:href="#g19" y="7276"/><use xlink:href="#g20" y="7293"/><use xlink:href="#g21" y="7310"/><use xlink:href="#g22" y="7327"/><use xlink:href="#g23" y="7344"/><use xlink:href="#g24" y="7361"/><use xlink:href="#g25" y="7378"/><use xlink:href="#g26" y="7395"/><use xlink:href="#g27" y="7412"/><use xlink:href="#g28" y="7429"/><use xlink:href="#g29" y="7446"/><use xlink:href="#g30" y="7463"/><use xlink:href="#g31" y="7480"/></g><g><use xlink:href="#g1" y="7616"/><use xlink:href="#g11" y="7633"/><use xlink:href="#g32" y="7650"/><use xlink:href="#g33" y="7667"/><use xlink:href="#g34" y="7684"/><use xlink:href="#g35" y="7701"/><use xlink:href="#g36" y="7718"/><use xlink:href="#g37" y="7735"/><use xlink:href="#g19" y="7752"/><use xlink:href="#g20" y="7769"/><use xlink:href="#g21" y="7786"/><use xlink:href="#g22" y="7803"/><use xlink:href="#g23" y="7820"/><use xlink:href="#g24" y="7837"/><use xlink:href="#g25" y="7854"/><use xlink:href="#g26" y="7871"/><use xlink:href="#g27" y="7888"/><use xlink:href="#g28" y="7905"/><use xlink:href="#g29" y="7922"/><use xlink:href="#g30" y="7939"/><use xlink:href="#g31" y="7956"/></g><g><use xlink:href="#g1" y="8092"/><use xlink:href="#g11" y="8109"/><use xlink:href="#g32" y="8126"/><use xlink:href="#g33" y="8143"/><use xlink:href="#g34" y="8160"/><use xlink:href="#g35" y="8177"/><use xlink:href="#g36" y="8194"/><use xlink:href="#g37" y="8211"/><use xlink:href="#g38" y="8228"/><use xlink:href="#g20" y="8245"/><use xlink:href="#g21" y="8262"/><use xlink:href="#g22" y="8279"/><use xlink:href="#g23" y="8296"/><use xlink:href="#g24" y="8313"/><use xlink:href="#g25" y="8330"/><use xlink:href="#g26" y="8347"/><use xlink:href="#g27" y="8364"/><use xlink:href="#g28" y="8381"/><use xlink:href="#g29" y="8398"/><use xlink:href="#g30" y="8415"/><use xlink:href="#g31" y="8432"/></g><g><use xlink:href="#g1" y="8568"/><use xlink:href="#g11" y="8585"/><use xlink:href="#g32" y="8602"/><use xlink:href="#g33" y="8619"/><use xlink:href="#g34" y="8636"/><use xlink:href="#g35" y="8653"/><use xlink:href="#g36" y="8670"/><use xlink:href="#g37" y="8687"/><use xlink:href="#g38" y="8704"/><use xlink:href="#g39" y="8721"/><use xlink:href="#g21" y="8738"/><use xlink:href="#g22" y="8755"/><use xlink:href="#g23" y="8772"/><use xlink:href="#g24" y="8789"/><use xlink:href="#g25" y="8806"/><use xlink:href="#g26" y="8823"/><use xlink:href="#g27" y="8840"/><use xlink:href="#g28" y="8857"/><use xlink:href="#g29" y="8874"/><use xlink:href="#g30" y="8891"/><use xlink:href="#g31" y="8908"/></g><g><use xlink:href="#g1" y="9044"/><use xlink:href="#g11" y="9061"/><use xlink:href="#g32" y="9078"/><use xlink:href="#g33" y="9095"/><use xlink:href="#g34" y="9112"/><use xlink:href="#g35" y="9129"/><use xlink:href="#g36" y="9146"/><use xlink:href="#g37" y="9163"/><use xlink:href="#g38" y="9180"/><use xlink:href="#g39" y="9197"/><use xlink:href="#g40" y="9214"/><use xlink:href="#g22" y="9231"/><use xlink:href="#g23" y="9248"/><use xlink:href="#g24" y="9265"/><use xlink:href="#g25" y="9282"/><use xlink:href="#g26" y="9299"/><use xlink:href="#g27" y="9316"/><use xlink:href="#g28" y="9333"/><use xlink:href="#g29" y="9350"/><use xlink:href="#g30" y="9367"/><use xlink:href="#g31" y="9384"/></g><g><use xlink:href="#g1" y="9520"/><use xlink:href="#g11" y="9537"/><use xlink:href="#g32" y="9554"/><use xlink:href="#g33" y="9571"/><use xlink:href="#g34" y="9588"/><use xlink:href="#g35" y="9605"/><use xlink:href="#g36" y="9622"/><use xlink:href="#g37" y="9639"/><use xlink:href="#g38" y="9656"/><use xlink:href="#g39" y="9673"/><use xlink:href="#g40" y="9690"/><use xlink:href="#g41" y="9707"/><use xlink:href="#g23" y="9724"/><use xlink:href="#g24" y="9741"/><use xlink:href="#g25" y="9758"/><use xlink:href="#g26" y="9775"/><use xlink:href="#g27" y="9792"/><use xlink:href="#g28" y="9809"/><use xlink:href="#g29" y="9826"/><use xlink:href="#g30" y="9843"/><use xlink:href="#g31" y="9860"/></g><g><use xlink:href="#g1" y="9996"/><use xlink:href="#g11" y="10013"/><use xlink:href="#g32" y="10030"/><use xlink:href="#g33" y="10047"/><use xlink:href="#g34" y="10064"/><use xlink:href="#g35" y="10081"/><use xlink:href="#g36" y="10098"/><use xlink:href="#g37" y="10115"/><use xlink:href="#g38" y="10132"/><use xlink:href="#g39" y="10149"/><use xlink:href="#g40" y="10166"/><use xlink:href="#g41" y="10183"/><use xlink:href="#g42" y="10200"/><use xlink:href="#g24" y="10217"/><use xlink:href="#g25" y="10234"/><use xlink:href="#g26" y="10251"/><use xlink:href="#g27" y="10268"/><use xlink:href="#g28" y="10285"/><use xlink:href="#g29" y="10302"/><use xlink:href="#g30" y="10319"/><use xlink:href="#g31" y="10336"/></g><g><use xlink:href="#g1" y="10472"/><use xlink:href="#g11" y="10489"/><use xlink:href="#g32" y="10506"/><use xlink:href="#g33" y="10523"/><use xlink:href="#g34" y="10540"/><use xlink:href="#g35" y="10557"/><use xlink:href="#g36" y="10574"/><use xlink:href="#g37" y="10591"/><use xlink:href="#g38" y="10608"/><use xlink:href="#g39" y="10625"/><use xlink:href="#g40" y="10642"/><use xlink:href="#g41" y="10659"/><use xlink:href="#g42" y="10676"/><use xlink:href="#g43" y="10693"/><use xlink:href="#g25" y="10710"/><use xlink:href="#g26" y="10727"/><use xlink:href="#g27" y="10744"/><use xlink:href="#g28" y="10761"/><use xlink:href="#g29" y="10778"/><use xlink:href="#g30" y="10795"/><use xlink:href="#g31" y="10812"/></g><g><use xlink:href="#g1" y="10948"/><use xlink:href="#g11" y="10965"/><use xlink:href="#g32" y="10982"/><use xlink:href="#g33" y="10999"/><use xlink:href="#g34" y="11016"/><use xlink:href="#g35" y="11033"/><use xlink:href="#g36" y="11050"/><use xlink:href="#g37" y="11067"/><use xlink:href="#g38" y="11084"/><use xlink:href="#g39" y="11101"/><use xlink:href="#g40" y="11118"/><use xlink:href="#g41" y="11135"/><use xlink:href="#g42" y="11152"/><use xlink:href="#g43" y="11169"/><use xlink:href="#g44" y="11186"/><use xlink:href="#g26" y="11203"/><use xlink:href="#g27" y="11220"/><use xlink:href="#g28" y="11237"/><use xlink:href="#g29" y="11254"/><use xlink:href="#g30" y="11271"/><use xlink:href="#g31" y="11288"/></g><g><use xlink:href="#g1" y="11424"/><use xlink:href="#g11" y="11441"/><use xlink:href="#g32" y="11458"/><use xlink:href="#g33" y="11475"/><use xlink:href="#g34" y="11492"/><use xlink:href="#g35" y="11509"/><use xlink:href="#g36" y="11526"/><use xlink:href="#g37" y="11543"/><use xlink:href="#g38" y="11560"/><use xlink:href="#g39" y="11577"/><use xlink:href="#g40" y="11594"/><use xlink:href="#g41" y="11611"/><use xlink:href="#g42" y="11628"/><use xlink:href="#g43" y="11645"/><use xlink:href="#g44" y="11662"/><use xlink:href="#g45" y="11679"/><use xlink:href="#g27" y="11696"/><use xlink:href="#g28" y="11713"/><use xlink:href="#g29" y="11730"/><use xlink:href="#g30" y="11747"/><use xlink:href="#g31" y="11764"/></g><g><use xlink:href="#g1" y="11900"/><use xlink:href="#g11" y="11917"/><use xlink:href="#g32" y="11934"/><use xlink:href="#g33" y="11951"/><use xlink:href="#g34" y="11968"/><use xlink:href="#g35" y="11985"/><use xlink:href="#g36" y="12002"/><use xlink:href="#g37" y="12019"/><use xlink:href="#g38" y="12036"/><use xlink:href="#g39" y="12053"/><use xlink:href="#g40" y="12070"/><use xlink:href="#g41" y="12087"/><use xlink:href="#g42" y="12104"/><use xlink:href="#g43" y="12121"/><use xlink:href="#g44" y="12138"/><use xlink:href="#g45" y="12155"/><use xlink:href="#g46" y="12172"/><use xlink:href="#g28" y="12189"/><use xlink:href="#g29" y="12206"/><use xlink:href="#g30" y="12223"/><use xlink:href="#g31" y="12240"/></g><g><use xlink:href="#g1" y="12376"/><use xlink:href="#g11" y="12393"/><use xlink:href="#g32" y="12410"/><use xlink:href="#g33" y="12427"/><use xlink:href="#g34" y="12444"/><use xlink:href="#g35" y="12461"/><use xlink:href="#g36" y="12478"/><use xlink:href="#g37" y="12495"/><use xlink:href="#g38" y="12512"/><use xlink:href="#g39" y="12529"/><use xlink:href="#g40" y="12546"/><use xlink:href="#g41" y="12563"/><use xlink:href="#g42" y="12580"/><use xlink:href="#g43" y="12597"/><use xlink:href="#g44" y="12614"/><use xlink:href="#g45" y="12631"/><use xlink:href="#g46" y="12648"/><use xlink:href="#g47" y="12665"/><use xlink:href="#g29" y="12682"/><use xlink:href="#g30" y="12699"/><use xlink:href="#g31" y="12716"/></g><g><use xlink:href="#g1" y="12852"/><use xlink:href="#g11" y="12869"/><use xlink:href="#g32" y="12886"/><use xlink:href="#g33" y="12903"/><use xlink:href="#g34" y="12920"/><use xlink:href="#g35" y="12937"/><use xlink:href="#g36" y="12954"/><use xlink:href="#g37" y="12971"/><use xlink:href="#g38" y="12988"/><use xlink:href="#g39" y="13005"/><use xlink:href="#g40" y="13022"/><use xlink:href="#g41" y="13039"/><use xlink:href="#g42" y="13056"/><use xlink:href="#g43" y="13073"/><use xlink:href="#g44" y="13090"/><use xlink:href="#g45" y="13107"/><use xlink:href="#g46" y="13124"/><use xlink:href="#g47" y="13141"/><use xlink:href="#g48" y="13158"/><use xlink:href="#g30" y="13175"/><rect x="328" y="13192" width="24" height="17" class="color0"/><rect x="352" y="13192" width="24" height="17" class="color1"/><rect x="376" y="13192" width="24" height="17" class="color2"/><rect x="400" y="13192" width="24" height="17" class="color3"/><rect x="424" y="13192" width="24" height="17" class="color4"/><rect x="448" y="13192" width="24" height="17" class="color5"/><rect x="472" y="13192" width="24" height="17" class="color6"/><rect x="496" y="13192" width="24" height="17" class="color7"/><use xlink:href="#g49" y="13192"/><rect x="328" y="13209" width="24" height="17" class="color8"/><rect x="352" y="13209" width="24" height="17" class="color9"/><rect x="376" y="13209" width="24" height="17" class="color10"/><rect x="400" y="13209" width="24" height="17" class="color11"/><rect x="424" y="13209" width="24" height="17" class="color12"/><rect x="448" y="13209" width="24" height="17" class="color13"/><rect x="472" y="13209" width="24" height="17" class="color14"/><rect x="496" y="13209" width="24" height="17" class="color15"/><use xlink:href="#g50" y="13209"/></g><g><use xlink:href="#g1" y="13328"/><use xlink:href="#g11" y="13345"/><use xlink:href="#g32" y="13362"/><use xlink:href="#g33" y="13379"/><use xlink:href="#g34" y="13396"/><use xlink:href="#g35" y="13413"/><use xlink:href="#g36" y="13430"/><use xlink:href="#g37" y="13447"/><use xlink:href="#g38" y="13464"/><use xlink:href="#g39" y="13481"/><use xlink:href="#g40" y="13498"/><use xlink:href="#g41" y="13515"/><use xlink:href="#g42" y="13532"/><use xlink:href="#g43" y="13549"/><use xlink:href="#g44" y="13566"/><use xlink:href="#g45" y="13583"/><use xlink:href="#g46" y="13600"/><use xlink:href="#g47" y="13617"/><use xlink:href="#g48" y="13634"/><use xlink:href="#g30" y="13651"/><rect x="328" y="13668" width="24" height="17" class="color0"/><rect x="352" y="13668" width="24" height="17" class="color1"/><rect x="376" y="13668" width="24" height="17" class="color2"/><rect x="400" y="13668" width="24" height="17" class="color3"/><rect x="424" y="13668" width="24" height="17" class="color4"/><rect x="448" y="13668" width="24" height="17" class="color5"/><rect x="472" y="13668" width="24" height="17" class="color6"/><rect x="496" y="13668" width="24" height="17" class="color7"/><use xlink:href="#g49" y="13668"/><rect x="328" y="13685" width="24" height="17" class="color8"/><rect x="352" y="13685" width="24" height="17" class="color9"/><rect x="376" y="13685" width="24" height="17" class="color10"/><rect x="400" y="13685" width="24" height="17" class="color11"/><rect x="424" y="13685" width="24" height="17" class="color12"/><rect x="448" y="13685" width="24" height="17" class="color13"/><rect x="472" y="13685" width="24" height="17" class="color14"/><rect x="496" y="13685" width="24" height="17" class="color15"/><use xlink:href="#g50" y="13685"/><rect x="0" y="13719" width="8" height="17" class="foreground"/><use xlink:href="#g12" y="13719"/></g><g><use xlink:href="#g1" y="13804"/><use xlink:href="#g11" y="13821"/><use xlink:href="#g32" y="13838"/><use xlink:href="#g33" y="13855"/><use xlink:href="#g34" y="13872"/><use xlink:href="#g35" y="13889"/><use xlink:href="#g36" y="13906"/><use xlink:href="#g37" y="13923"/><use xlink:href="#g38" y="13940"/><use xlink:href="#g39" y="13957"/><use xlink:href="#g40" y="13974"/><use xlink:href="#g41" y="13991"/><use xlink:href="#g42" y="14008"/><use xlink:href="#g43" y="14025"/><use xlink:href="#g44" y="14042"/><use xlink:href="#g45" y="14059"/><use xlink:href="#g46" y="14076"/><use xlink:href="#g47" y="14093"/><use xlink:href="#g48" y="14110"/><use xlink:href="#g30" y="14127"/><rect x="328" y="14144" width="24" height="17" class="color0"/><rect x="352" y="14144" width="24" height="17" class="color1"/><rect x="376" y="14144" width="24" height="17" class="color2"/><rect x="400" y="14144" width="24" height="17" class="color3"/><rect x="424" y="14144" width="24" height="17" class="color4"/><rect x="448" y="14144" width="24" height="17" class="color5"/><rect x="472" y="14144" width="24" height="17" class="color6"/><rect x="496" y="14144" width="24" height="17" class="color7"/><use xlink:href="#g49" y="14144"/><rect x="328" y="14161" width="24" height="17" class="color8"/><rect x="352" y="14161" width="24" height="17" class="color9"/><rect x="376" y="14161" width="24" height="17" class="color10"/><rect x="400" y="14161" width="24" height="17" class="color11"/><rect x="424" y="14161" width="24" height="17" class="color12"/><rect x="448" y="14161" width="24" height="17" class="color13"/><rect x="472" y="14161" width="24" height="17" class="color14"/><rect x="496" y="14161" width="24" height="17" class="color15"/><use xlink:href="#g50" y="14161"/><use xlink:href="#g1" y="14195"/><rect x="48" y="14212" width="8" height="17" class="foreground"/><use xlink:href="#g2" y="14212"/></g><g><use xlink:href="#g1" y="14280"/><use xlink:href="#g11" y="14297"/><use xlink:href="#g32" y="14314"/><use xlink:href="#g33" y="14331"/><use xlink:href="#g34" y="14348"/><use xlink:href="#g35" y="14365"/><use xlink:href="#g36" y="14382"/><use xlink:href="#g37" y="14399"/><use xlink:href="#g38" y="14416"/><use xlink:href="#g39" y="14433"/><use xlink:href="#g40" y="14450"/><use xlink:href="#g41" y="14467"/><use xlink:href="#g42" y="14484"/><use xlink:href="#g43" y="14501"/><use xlink:href="#g44" y="14518"/><use xlink:href="#g45" y="14535"/><use xlink:href="#g46" y="14552"/><use xlink:href="#g47" y="14569"/><use xlink:href="#g48" y="14586"/><use xlink:href="#g30" y="14603"/><rect x="328" y="14620" width="24" height="17" class="color0"/><rect x="352" y="14620" width="24" height="17" class="color1"/><rect x="376" y="14620" width="24" height="17" class="color2"/><rect x="400" y="14620" width="24" height="17" class="color3"/><rect x="424" y="14620" width="24" height="17" class="color4"/><rect x="448" y="14620" width="24" height="17" class="color5"/><rect x="472" y="14620" width="24" height="17" class="color6"/><rect x="496" y="14620" width="24" height="17" class="color7"/><use xlink:href="#g49" y="14620"/><rect x="328" y="14637" width="24" height="17" class="color8"/><rect x="352" y="14637" width="24" height="17" class="color9"/><rect x="376" y="14637" width="24" height="17" class="color10"/><rect x="400" y="14637" width="24" height="17" class="color11"/><rect x="424" y="14637" width="24" height="17" class="color12"/><rect x="448" y="14637" width="24" height="17" class="color13"/><rect x="472" y="14637" width="24" height="17" class="color14"/><rect x="496" y="14637" width="24" height="17" class="color15"/><use xlink:href="#g50" y="14637"/><use xlink:href="#g1" y="14671"/><rect x="56" y="14688" width="8" height="17" class="foreground"/><use xlink:href="#g51" y="14688"/></g><g><use xlink:href="#g1" y="14756"/><use xlink:href="#g11" y="14773"/><use xlink:href="#g32" y="14790"/><use xlink:href="#g33" y="14807"/><use xlink:href="#g34" y="14824"/><use xlink:href="#g35" y="14841"/><use xlink:href="#g36" y="14858"/><use xlink:href="#g37" y="14875"/><use xlink:href="#g38" y="14892"/><use xlink:href="#g39" y="14909"/><use xlink:href="#g40" y="14926"/><use xlink:href="#g41" y="14943"/><use xlink:href="#g42" y="14960"/><use xlink:href="#g43" y="14977"/><use xlink:href="#g44" y="14994"/><use xlink:href="#g45" y="15011"/><use xlink:href="#g46" y="15028"/><use xlink:href="#g47" y="15045"/><use xlink:href="#g48" y="15062"/><use xlink:href="#g30" y="15079"/><rect x="328" y="15096" width="24" height="17" class="color0"/><rect x="352" y="15096" width="24" height="17" class="color1"/><rect x="376" y="15096" width="24" height="17" class="color2"/><rect x="400" y="15096" width="24" height="17" class="color3"/><rect x="424" y="15096" width="24" height="17" class="color4"/><rect x="448" y="15096" width="24" height="17" class="color5"/><rect x="472" y="15096" width="24" height="17" class="color6"/><rect x="496" y="15096" width="24" height="17" class="color7"/><use xlink:href="#g49" y="15096"/><rect x="328" y="15113" width="24" height="17" class="color8"/><rect x="352" y="15113" width="24" height="17" class="color9"/><rect x="376" y="15113" width="24" height="17" class="color10"/><rect x="400" y="15113" width="24" height="17" class="color11"/><rect x="424" y="15113" width="24" height="17" class="color12"/><rect x="448" y="15113" width="24" height="17" class="color13"/><rect x="472" y="15113" width="24" height="17" class="color14"/><rect x="496" y="15113" width="24" height="17" class="color15"/><use xlink:href="#g50" y="15113"/><use xlink:href="#g1" y="15147"/><rect x="64" y="15164" width="8" height="17" class="foreground"/><use xlink:href="#g52" y="15164"/></g><g><use xlink:href="#g1" y="15232"/><use xlink:href="#g11" y="15249"/><use xlink:href="#g32" y="15266"/><use xlink:href="#g33" y="15283"/><use xlink:href="#g34" y="15300"/><use xlink:href="#g35" y="15317"/><use xlink:href="#g36" y="15334"/><use xlink:href="#g37" y="15351"/><use xlink:href="#g38" y="15368"/><use xlink:href="#g39" y="15385"/><use xlink:href="#g40" y="15402"/><use xlink:href="#g41" y="15419"/><use xlink:href="#g42" y="15436"/><use xlink:href="#g43" y="15453"/><use xlink:href="#g44" y="15470"/><use xlink:href="#g45" y="15487"/><use xlink:href="#g46" y="15504"/><use xlink:href="#g47" y="15521"/><use xlink:href="#g48" y="15538"/><use xlink:href="#g30" y="15555"/><rect x="328" y="15572" width="24" height="17" class="color0"/><rect x="352" y="15572" width="24" height="17" class="color1"/><rect x="376" y="15572" width="24" height="17" class="color2"/><rect x="400" y="15572" width="24" height="17" class="color3"/><rect x="424" y="15572" width="24" height="17" class="color4"/><rect x="448" y="15572" width="24" height="17" class="color5"/><rect x="472" y="15572" width="24" height="17" class="color6"/><rect x="496" y="15572" width="24" height="17" class="color7"/><use xlink:href="#g49" y="15572"/><rect x="328" y="15589" width="24" height="17" class="color8"/><rect x="352" y="15589" width="24" height="17" class="color9"/><rect x="376" y="15589" width="24" height="17" class="color10"/><rect x="400" y="15589" width="24" height="17" class="color11"/><rect x="424" y="15589" width="24" height="17" class="color12"/><rect x="448" y="15589" width="24" height="17" class="color13"/><rect x="472" y="15589" width="24" height="17" class="color14"/><rect x="496" y="15589" width="24" height="17" class="color15"/><use xlink:href="#g50" y="15589"/><use xlink:href="#g1" y="15623"/><rect x="72" y="15640" width="8" height="17" class="foreground"/><use xlink:href="#g53" y="15640"/></g><g><use xlink:href="#g1" y="15708"/><use xlink:href="#g11" y="15725"/><use xlink:href="#g32" y="15742"/><use xlink:href="#g33" y="15759"/><use xlink:href="#g34" y="15776"/><use xlink:href="#g35" y="15793"/><use xlink:href="#g36" y="15810"/><use xlink:href="#g37" y="15827"/><use xlink:href="#g38" y="15844"/><use xlink:href="#g39" y="15861"/><use xlink:href="#g40" y="15878"/><use xlink:href="#g41" y="15895"/><use xlink:href="#g42" y="15912"/><use xlink:href="#g43" y="15929"/><use xlink:href="#g44" y="15946"/><use xlink:href="#g45" y="15963"/><use xlink:href="#g46" y="15980"/><use xlink:href="#g47" y="15997"/><use xlink:href="#g48" y="16014"/><use xlink:href="#g30" y="16031"/><rect x="328" y="16048" width="24" height="17" class="color0"/><rect x="352" y="16048" width="24" height="17" class="color1"/><rect x="376" y="16048" width="24" height="17" class="color2"/><rect x="400" y="16048" width="24" height="17" class="color3"/><rect x="424" y="16048" width="24" height="17" class="color4"/><rect x="448" y="16048" width="24" height="17" class="color5"/><rect x="472" y="16048" width="24" height="17" class="color6"/><rect x="496" y="16048" width="24" height="17" class="color7"/><use xlink:href="#g49" y="16048"/><rect x="328" y="16065" width="24" height="17" class="color8"/><rect x="352" y="16065" width="24" height="17" class="color9"/><rect x="376" y="16065" width="24" height="17" class="color10"/><rect x="400" y="16065" width="24" height="17" class="color11"/><rect x="424" y="16065" width="24" height="17" class="color12"/><rect x="448" y="16065" width="24" height="17" class="color13"/><rect x="472" y="16065" width="24" height="17" class="color14"/><rect x="496" y="16065" width="24" height="17" class="color15"/><use xlink:href="#g50" y="16065"/><use xlink:href="#g1" y="16099"/><rect x="80" y="16116" width="8" height="17" class="foreground"/><use xlink:href="#g54" y="16116"/></g><g><use xlink:href="#g1" y="16184"/><use xlink:href="#g11" y="16201"/><use xlink:href="#g32" y="16218"/><use xlink:href="#g33" y="16235"/><use xlink:href="#g34" y="16252"/><use xlink:href="#g35" y="16269"/><use xlink:href="#g36" y="16286"/><use xlink:href="#g37" y="16303"/><use xlink:href="#g38" y="16320"/><use xlink:href="#g39" y="16337"/><use xlink:href="#g40" y="16354"/><use xlink:href="#g41" y="16371"/><use xlink:href="#g42" y="16388"/><use xlink:href="#g43" y="16405"/><use xlink:href="#g44" y="16422"/><use xlink:href="#g45" y="16439"/><use xlink:href="#g46" y="16456"/><use xlink:href="#g47" y="16473"/><use xlink:href="#g48" y="16490"/><use xlink:href="#g30" y="16507"/><rect x="328" y="16524" width="24" height="17" class="color0"/><rect x="352" y="16524" width="24" height="17" class="color1"/><rect x="376" y="16524" width="24" height="17" class="color2"/><rect x="400" y="16524" width="24" height="17" class="color3"/><rect x="424" y="16524" width="24" height="17" class="color4"/><rect x="448" y="16524" width="24" height="17" class="color5"/><rect x="472" y="16524" width="24" height="17" class="color6"/><rect x="496" y="16524" width="24" height="17" class="color7"/><use xlink:href="#g49" y="16524"/><rect x="328" y="16541" width="24" height="17" class="color8"/><rect x="352" y="16541" width="24" height="17" class="color9"/><rect x="376" y="16541" width="24" height="17" class="color10"/><rect x="400" y="16541" width="24" height="17" class="color11"/><rect x="424" y="16541" width="24" height="17" class="color12"/><rect x="448" y="16541" width="24" height="17" class="color13"/><rect x="472" y="16541" width="24" height="17" class="color14"/><rect x="496" y="16541" width="24" height="17" class="color15"/><use xlink:href="#g50" y="16541"/><use xlink:href="#g1" y="16575"/><rect x="88" y="16592" width="8" height="17" class="foreground"/><use xlink:href="#g55" y="16592"/></g></g></svg>
</svg>